<?xml version="1.0" standalone="no"?>
<!DOCTYPE svg PUBLIC "-//W3C//DTD SVG 1.1//EN" "http://www.w3.org/Graphics/SVG/1.1/DTD/svg11.dtd" >
<svg xmlns="http://www.w3.org/2000/svg">
<metadata>Generated by IcoMoon</metadata>
<defs>
<font id="icomoon" horiz-adv-x="1024">
<font-face units-per-em="1024" ascent="960" descent="-64" />
<missing-glyph horiz-adv-x="1024" />
<glyph unicode="&#x20;" horiz-adv-x="512" d="" />
<glyph unicode="&#xe900;" glyph-name="arrow-up" horiz-adv-x="1707" d="M441.458 491.008c-381.383-352.142-409.941-379.221-418.133-395.378-6.936-13.37-11.003-29.19-11.003-45.96 0-41.52 24.933-77.217 60.642-92.935l0.65-0.255c13.312-6.144 20.139-7.396 40.619-7.396 43.463-0.114 20.139-19.456 399.701 331.093 89.371 83.494 199.862 185.122 311.020 286.030l28.379 25.38c1.252 0 153.941-140.060 339.399-311.41 379.563-350.549 356.238-331.207 399.701-331.093 20.48 0 27.307 1.252 40.619 7.396 36.36 15.974 61.293 51.67 61.293 93.19 0 16.77-4.067 32.59-11.269 46.527l0.266-0.567c-8.192 16.156-36.75 43.236-418.133 395.378-103.16 96.269-237.241 219.614-372.005 342.221l-39.871 35.749c-1.365 0-186.596-170.098-411.876-377.97z" />
<glyph unicode="&#xe901;" glyph-name="mail" horiz-adv-x="1434" d="M1247.683 867.84h-1061.465l493.466-435.253c21.288-18.776 53.221-18.776 74.509-0.001l493.49 435.254zM109.565 812.562c-0.202-2.026-0.305-4.083-0.305-6.162v-712.498l360.565 400.9-360.26 317.761zM1259.581 28.16l-364.763 405.573-79.665-70.264c-56.122-49.5-140.311-49.499-196.432 0.002l-79.778 70.366-364.86-405.677h1085.498zM1324.339 93.978v712.422c0 1.996-0.092 3.97-0.276 5.918l-360.123-317.621 360.4-400.719zM17.1 806.4c0 84.831 68.769 153.6 153.6 153.6h1092.199c84.828 0 153.6-68.769 153.6-153.6v-716.8c0-84.831-68.772-153.6-153.6-153.6h-1092.199c-84.831 0-153.6 68.769-153.6 153.6v716.8z" />
<glyph unicode="&#xe902;" glyph-name="plus" horiz-adv-x="1109" d="M639.986 874.667c0 47.128-38.205 85.333-85.333 85.333s-85.333-38.205-85.333-85.333v-341.333h-341.32c-47.128 0-85.333-38.205-85.333-85.333s38.205-85.333 85.333-85.333h341.32v-341.333c0-47.13 38.205-85.333 85.333-85.333s85.333 38.204 85.333 85.333v341.333h341.347c47.13 0 85.333 38.205 85.333 85.333s-38.204 85.333-85.333 85.333h-341.347v341.333z" />
<glyph unicode="&#xe903;" glyph-name="circle-close" horiz-adv-x="1075" d="M504.474 958.976c-82.944-7.987-134.707-22.477-200.704-56.064-49.381-25.235-91.672-56.412-128.157-93.34l-0.048-0.049c-38.138-37.674-70.114-81.473-94.354-129.823l-1.288-2.836c-37.376-75.366-53.658-144.589-53.658-228.506 0-84.070 16.384-153.702 53.914-228.813 25.446-51.053 57.338-94.735 95.334-132.25l0.052-0.051c78.848-78.95 176.128-127.949 288.563-145.357 37.734-5.837 109.21-5.837 146.944 0 112.384 17.408 209.664 66.406 288.563 145.357 38.823 38.287 71.216 82.966 95.495 132.354l1.273 2.865c36.25 73.523 52.531 143.616 52.531 225.894 0 44.288-2.406 68.403-10.65 106.65-18.552 82.609-54.261 154.941-103.351 216.067l0.797-1.027c-23.326 27.523-48.047 52.244-74.653 74.812l-0.918 0.759c-70.776 57.269-158.304 96.578-254.168 109.725l-2.702 0.303c-19.149 2.611-83.814 4.762-98.816 3.328zM563.712 897.28c84.070-5.12 155.955-29.286 225.69-75.827 59.109-40.528 107.157-92.895 141.561-153.974l1.185-2.288c37.427-67.942 55.245-137.83 55.245-216.832 0-124.723-47.462-236.442-137.37-323.43-43.483-42.52-95.753-76.256-153.812-98.209l-3.065-1.017c-143.053-52.89-304.589-28.723-427.674 63.949-28.603 22.935-53.98 47.566-76.869 74.384l-0.647 0.777c-66.56 82.739-100.147 177.869-100.147 283.546 0 105.779 33.69 201.114 100.198 283.597 15.77 19.558 50.074 53.709 69.171 68.813 68.697 54.838 155.138 90.163 249.53 96.389l1.35 0.071 24.166 1.536c1.485 0.154 15.667-0.512 31.488-1.485zM340.48 654.899c-11.674-7.936-16.128-18.79-13.517-33.024 1.075-6.042 10.803-16.435 83.507-89.293 45.312-45.363 82.33-83.251 82.33-84.224s-36.352-38.042-80.794-82.432c-45.619-45.466-81.92-83.149-83.354-86.374-9.984-22.989 11.366-48.026 35.584-41.677 6.707 1.792 17.357 11.725 90.47 84.736l82.893 82.688 82.893-82.688c73.114-73.011 83.763-82.944 90.47-84.736 24.218-6.349 45.568 18.688 35.584 41.677-1.434 3.226-38.093 41.267-84.224 87.296l-81.715 81.51 83.2 83.354c73.574 73.677 83.354 84.122 84.429 90.163 3.789 20.736-9.062 37.069-29.133 37.069-0.353 0.011-0.769 0.018-1.186 0.018-4.448 0-8.723-0.737-12.71-2.097l0.277 0.082c-2.15-1.075-40.806-38.758-85.914-83.763l-81.971-81.766-81.971 81.766c-45.107 45.005-83.763 82.688-85.914 83.763-7.014 3.533-22.682 2.458-29.235-2.048z" />
<glyph unicode="&#xe904;" glyph-name="ai" horiz-adv-x="870" d="M480.056 560.286c7.508 21.12 39.316 21.12 46.828 0l44.027-123.97c9.687-27.249 26.015-52.009 47.688-72.315 21.668-20.311 48.087-35.604 77.158-44.677l132.147-41.277c22.528-7.040 22.528-36.864 0-43.904l-132.219-41.283c-29.061-9.088-55.47-24.397-77.128-44.713s-37.975-45.087-47.647-72.346l-44.027-123.904c-1.623-4.623-4.756-8.648-8.96-11.505s-9.263-4.393-14.455-4.393c-5.191 0-10.25 1.536-14.454 4.393s-7.34 6.881-8.958 11.505l-44.027 123.971c-9.684 27.244-26.001 51.999-47.659 72.305-21.658 20.311-48.061 35.61-77.119 44.687l-132.218 41.283c-4.933 1.516-9.228 4.454-12.273 8.397s-4.685 8.684-4.685 13.553c0 4.869 1.64 9.61 4.685 13.553s7.341 6.881 12.273 8.402l132.218 41.277c29.058 9.083 55.461 24.381 77.119 44.687s37.975 45.061 47.659 72.305l44.027 123.97zM216.37 886.624c0.979 2.771 2.865 5.183 5.389 6.893s5.559 2.63 8.673 2.63c3.114 0 6.149-0.92 8.673-2.63s4.41-4.121 5.389-6.893l26.416-74.369c11.809-33.152 39.522-59.137 74.881-70.209l79.318-24.768c2.956-0.918 5.528-2.685 7.351-5.052s2.805-5.212 2.805-8.132c0-2.919-0.982-5.765-2.805-8.132s-4.396-4.135-7.351-5.052l-79.318-24.768c-17.438-5.448-33.284-14.628-46.282-26.814s-22.789-27.043-28.599-43.394l-26.416-74.368c-0.979-2.772-2.865-5.183-5.389-6.893s-5.559-2.63-8.673-2.63c-3.114 0-6.149 0.92-8.673 2.63s-4.41 4.121-5.389 6.893l-26.416 74.368c-5.81 16.351-15.602 31.207-28.599 43.394s-28.843 21.367-46.282 26.814l-79.317 24.768c-2.956 0.918-5.528 2.685-7.352 5.052s-2.805 5.212-2.805 8.132c0 2.919 0.981 5.765 2.805 8.132s4.396 4.135 7.352 5.052l79.317 24.768c17.439 5.448 33.284 14.628 46.282 26.814s22.789 27.043 28.599 43.394l26.416 74.369zM698.895 953.76c0.676 1.822 1.935 3.403 3.615 4.521 1.674 1.118 3.681 1.719 5.74 1.719 2.053 0 4.060-0.601 5.734-1.719 1.679-1.118 2.939-2.699 3.615-4.521l17.613-49.536c7.849-22.144 26.348-39.489 49.966-46.849l52.828-16.512c1.946-0.632 3.63-1.816 4.823-3.387s1.833-3.452 1.833-5.381c0-1.929-0.64-3.809-1.833-5.381s-2.877-2.755-4.823-3.387l-52.828-16.512c-11.643-3.63-22.216-9.755-30.889-17.887s-15.206-18.048-19.077-28.961l-17.613-49.537c-0.676-1.822-1.935-3.402-3.615-4.521-1.674-1.118-3.681-1.719-5.734-1.719-2.058 0-4.065 0.601-5.74 1.719-1.679 1.119-2.939 2.699-3.615 4.521l-17.613 49.537c-3.871 10.913-10.404 20.829-19.077 28.961s-19.246 14.257-30.889 17.887l-52.762 16.512c-1.946 0.632-3.63 1.816-4.823 3.387s-1.833 3.452-1.833 5.381c0 1.929 0.64 3.81 1.833 5.381s2.877 2.755 4.823 3.387l52.833 16.512c23.619 7.36 42.117 24.705 49.966 46.849l17.541 49.536z" />
<glyph unicode="&#xe905;" glyph-name="link" d="M643.982 946.176c-67.957-8.693-128.211-36.445-176.664-77.653l0.48 0.398c-15.986-13.483-48.014-49.38-53.646-59.961-5.12-9.671-5.12-29.639 0.057-39.31 5.689-10.809 17.522-20.651 28.729-23.893 18.887-5.518 35.214 0.569 51.086 19.115 32.825 38.229 58.766 58.027 96.484 73.785 27.19 11.585 58.821 18.319 92.025 18.319 44.362 0 85.916-12.021 121.583-32.984l-1.128 0.613c58.596-34.247 99.271-91.534 113.607-159.858 2.551-13.846 4.010-29.778 4.010-46.052s-1.459-32.206-4.253-47.674l0.243 1.622c-12.516-59.62-36.807-98.93-88.405-143.303-23.609-20.252-27.022-47.73-8.533-67.812 7.625-9.002 18.712-14.867 31.18-15.526l0.109-0.005c15.132-1.195 24.348 3.584 49.721 25.884 55.012 48.299 89.828 108.601 105.813 183.41 4.324 20.139 4.608 24.348 4.608 63.374 0 39.083-0.284 43.236-4.608 63.602-3.775 16.912-7.496 30.346-11.768 43.532l0.959-3.425c-40.992 120.743-146.706 208.91-274.774 223.77l-1.536 0.145c-11.077 0.942-23.972 1.48-36.992 1.48-13.512 0-26.888-0.579-40.106-1.712l1.721 0.119zM674.702 662.869c-3.868-0.74-10.012-2.844-13.653-4.722-3.868-1.991-78.62-75.605-183.41-180.565-192.683-193.024-181.476-180.565-181.362-201.216-0.001-0.125-0.002-0.274-0.002-0.422 0-12.741 5.645-24.164 14.57-31.903l0.052-0.045c7.243-7.22 17.237-11.684 28.273-11.684 0.46 0 0.919 0.008 1.376 0.023l-0.066-0.002c20.48-0.171 8.021-11.435 201.842 182.158 131.413 131.243 178.972 179.712 181.703 185.401 2.323 5.711 3.671 12.336 3.671 19.276 0 6.010-1.011 11.783-2.871 17.16l0.111-0.368c-7.656 16.356-23.977 27.482-42.895 27.482-2.59 0-5.132-0.209-7.609-0.61l0.271 0.036zM156.615 548.068c-4.069-1.539-7.537-3.242-10.815-5.227l0.291 0.163c-7.509-4.949-37.376-32.256-49.095-44.828-43.349-46.763-72.875-109.454-82.432-174.99-1.63-13.759-2.56-29.697-2.56-45.852s0.93-32.092 2.74-47.762l-0.179 1.91c19.979-133.154 116.734-239.265 243.048-272.716l2.314-0.521c52.907-13.596 111.957-13.995 163.1-1.024 56.889 14.393 109.454 42.951 149.22 81.010 8.818 8.363 32.825 39.765 38.059 49.664 4.665 8.818 4.38 29.241-0.512 38.514-5.836 9.632-14.049 17.298-23.844 22.316l-0.334 0.155c-4.748 1.708-10.227 2.695-15.937 2.695-7.831 0-15.227-1.857-21.774-5.154l0.278 0.127c-8.192-4.153-11.89-7.851-23.324-22.869-19.203-25.51-43.983-45.806-72.605-59.29l-1.18-0.5c-79.531-38.229-167.367-32.882-240.299 14.507-65.269 43.051-107.745 116.044-107.745 198.959 0 7.304 0.33 14.53 0.975 21.666l-0.067-0.92c6.087 64.284 32.313 115.029 82.83 160.199 22.073 19.74 26.738 26.453 29.241 42.155 2.56 15.872-9.216 36.864-25.259 45.056-8.647 4.38-25.828 5.689-34.133 2.56z" />
<glyph unicode="&#xe906;" glyph-name="check" horiz-adv-x="1365" d="M1261.483 957.781c-7.964-2.071-14.889-4.726-21.422-8.042l0.6 0.276c-8.363-4.267-110.763-100.523-388.608-365.568l-377.173-359.765-10.411 10.069c-60.245 57.6-307.371 292.437-317.867 301.995-16.64 15.189-30.891 22.528-48.213 24.917-4.031 0.68-8.675 1.069-13.409 1.069-46.751 0-84.651-37.899-84.651-84.651 0-17.691 5.427-34.114 14.706-47.696l-0.188 0.291c4.096-5.803 109.227-107.605 233.557-226.219l226.048-215.723 12.544 12.032 408.405 389.205c439.552 418.731 449.963 428.8 457.728 440.917 8.021 12.459 12.971 34.219 11.605 50.773-3.445 31.029-22.473 56.944-48.974 69.998l-0.52 0.231c-11.149 4.534-24.084 7.166-37.633 7.166-5.694 0-11.279-0.465-16.72-1.358l0.593 0.080z" />
<glyph unicode="&#xe907;" glyph-name="arrow-down" horiz-adv-x="1707" d="M92.046 945.778c-64.057-13.54-98.304-86.13-68.722-145.408 8.192-16.156 36.75-43.236 418.133-395.378 103.16-96.269 237.241-219.614 372.005-342.221l39.871-35.749c1.365 0 186.596 170.098 411.876 377.97 381.383 352.142 409.941 379.221 418.133 395.378 6.936 13.37 11.003 29.19 11.003 45.96 0 41.52-24.933 77.217-60.642 92.935l-0.65 0.255c-13.312 6.144-20.139 7.396-40.619 7.396-43.463 0.114-20.139 19.456-399.701-331.093-88.812-82.979-199.304-184.644-310.445-285.607l-28.955-25.916c-1.252 0-153.941 140.174-339.399 311.524-368.299 340.082-354.759 328.59-391.623 331.207-2.824 0.205-6.119 0.322-9.441 0.322-7.349 0-14.565-0.572-21.605-1.674l0.781 0.101z" />
<glyph unicode="&#xe908;" glyph-name="star" horiz-adv-x="964" d="M481.882 122.76l233.707-147.902c42.797-27.106 95.172 12.963 83.908 63.639l-61.946 278.124 206.673 187.382c37.731 34.176 17.456 98.994-32.099 103.119l-271.998 24.159-106.435 262.805c-19.147 47.729-84.472 47.729-103.619 0l-106.435-262.216-272-24.159c-49.557-4.124-69.83-68.942-32.099-103.119l206.675-187.381-61.946-278.124c-11.263-50.676 41.109-90.744 83.909-63.639l233.706 147.311z" />
<glyph unicode="&#xe909;" glyph-name="heart" horiz-adv-x="1152" d="M299.52 937.6c-48.345-3.754-92.525-18.69-130.879-42.201l1.279 0.729c-63.276-40.33-109.487-102.638-128.138-175.951l-0.438-2.033c-7.104-28.416-8.704-43.264-8.704-79.488 0-114.944 39.872-233.088 114.496-339.392 74.816-106.56 184.448-208.128 349.76-324.096 49.984-35.072 55.232-37.504 79.104-37.504s29.12 2.496 79.104 37.568c147.904 103.744 251.2 196.032 324.48 289.92 92.16 118.144 139.776 245.44 139.776 373.76 0 35.968-1.664 50.88-8.704 79.232-20.869 83.484-75.759 151.297-148.718 189.062l-1.618 0.762c-37.078 19.070-80.907 30.248-127.348 30.248-20.629 0-40.742-2.206-60.117-6.394l1.865 0.338c-36.16-7.36-78.336-26.368-112.192-50.496-27.372-20.906-51.444-43.658-72.944-68.683l-0.528-0.629c-4.011-5.425-8.318-10.2-13.044-14.524l-0.076-0.068c-3.637 3.062-6.785 6.535-9.422 10.384l-0.114 0.176c-14.144 18.24-57.792 59.904-76.8 73.344-46.656 33.024-94.656 50.88-148.8 55.424-6.92 0.868-14.928 1.363-23.052 1.363-6.418 0-12.764-0.309-19.024-0.913l0.796 0.062zM370.624 868.224c69.12-18.496 129.536-67.52 173.568-140.736 9.856-16.448 18.752-22.848 31.68-22.848 13.568 0 21.632 5.696 31.68 22.4 36.992 61.504 91.2 111.040 143.744 131.328 28.288 10.88 42.112 13.632 74.304 14.72 33.088 1.088 52.608-1.536 78.72-10.432 70.208-24 126.208-86.208 144.768-160.896 9.472-38.080 8.32-97.6-2.88-153.6-17.088-85.12-59.2-171.136-123.072-250.88-49.152-61.376-112-122.432-190.656-185.024-59.392-47.296-149.184-110.976-156.48-110.976s-97.088 63.68-156.544 111.040c-143.744 114.432-237.12 226.24-284.736 340.8-34.432 82.816-47.552 185.408-31.808 248.64 20.48 82.432 85.632 148.288 164.928 166.656 21.056 4.928 21.184 4.928 55.68 4.288 25.216-0.448 35.904-1.472 47.104-4.48z" />
<glyph unicode="&#xe90a;" glyph-name="edit" horiz-adv-x="1088" d="M59.938-64c-8.283 0.013-16.472 1.651-24.047 4.806s-14.37 7.757-19.952 13.517c-5.684 5.709-10.021 12.486-12.726 19.891-2.706 7.398-3.72 15.251-2.975 23.046l14.627 151.418 675.69 635.892 211.162-198.738-675.511-635.836-160.833-13.773c-1.806-0.154-3.619-0.23-5.433-0.224zM943.866 625.569l-211.104 198.738 126.63 119.209c5.542 5.226 12.128 9.371 19.373 12.2 7.251 2.828 15.014 4.284 22.861 4.284s15.616-1.456 22.861-4.284c7.251-2.828 13.837-6.974 19.379-12.2l126.624-119.209c5.549-5.22 9.958-11.419 12.96-18.242s4.55-14.136 4.55-21.523c0-7.386-1.549-14.7-4.55-21.523s-7.411-13.021-12.96-18.241l-126.624-119.209z" />
<glyph unicode="&#xe90b;" glyph-name="circle-checked" horiz-adv-x="1075" d="M504.474 958.976c-82.944-7.987-134.707-22.477-200.704-56.064-49.381-25.235-91.672-56.412-128.157-93.34l-0.048-0.049c-38.138-37.674-70.114-81.473-94.354-129.823l-1.288-2.836c-37.376-75.366-53.658-144.589-53.658-228.506 0-84.070 16.384-153.702 53.914-228.813 25.446-51.053 57.338-94.735 95.334-132.25l0.052-0.051c78.848-78.95 176.128-127.949 288.563-145.357 37.734-5.837 109.21-5.837 146.944 0 112.384 17.408 209.664 66.406 288.563 145.357 38.823 38.287 71.216 82.966 95.495 132.354l1.273 2.865c36.25 73.523 52.531 143.616 52.531 225.894 0 44.288-2.406 68.403-10.65 106.65-18.552 82.609-54.261 154.941-103.351 216.067l0.797-1.027c-23.326 27.523-48.047 52.244-74.653 74.812l-0.918 0.759c-70.776 57.269-158.304 96.578-254.168 109.725l-2.702 0.303c-19.149 2.611-83.814 4.762-98.816 3.328zM563.712 897.28c84.070-5.12 155.955-29.286 225.69-75.827 59.109-40.528 107.157-92.895 141.561-153.974l1.185-2.288c37.427-67.942 55.245-137.83 55.245-216.832 0-124.723-47.462-236.442-137.37-323.43-43.483-42.52-95.753-76.256-153.812-98.209l-3.065-1.017c-143.053-52.89-304.589-28.723-427.674 63.949-28.603 22.935-53.98 47.566-76.869 74.384l-0.647 0.777c-66.56 82.739-100.147 177.869-100.147 283.546 0 105.779 33.69 201.114 100.198 283.597 15.77 19.558 50.074 53.709 69.171 68.813 68.697 54.838 155.138 90.163 249.53 96.389l1.35 0.071 24.166 1.536c1.485 0.154 15.667-0.512 31.488-1.485zM727.552 628.429c-3.43-2.099-64.922-62.413-136.653-134.042l-130.355-130.202-55.091 54.886c-30.31 30.208-56.883 55.808-59.034 56.883-5.478 2.816-21.299 2.458-27.085-0.512-10.009-5.089-16.747-15.311-16.747-27.107 0-5.426 1.426-10.52 3.923-14.925l-0.078 0.15c2.15-3.84 37.939-40.448 79.616-81.459l75.725-74.547 153.395 153.498c85.965 86.067 154.266 155.75 155.29 158.566 1.361 3.441 2.15 7.428 2.15 11.599 0 10.666-5.161 20.127-13.122 26.022l-0.088 0.062c-7.424 5.478-23.757 6.093-31.846 1.126z" />
<glyph unicode="&#xe90c;" glyph-name="filled-heart" horiz-adv-x="1103" d="M270.178 916.834c-72.338-12.23-133.757-51.61-174.577-107.084l-0.527-0.751c-25.934-35.038-44.346-77.198-51.991-123.002l-0.233-1.689c-3.545-21.189-3.938-73.019-0.788-101.061 22.213-194.324 143.36-361.551 394.161-544.217 41.275-30.090 73.177-51.673 82.865-56.084 20.086-9.137 44.662-9.058 64.827 0.158 16.778 7.641 112.955 76.721 162.265 116.578 76.958 62.070 148.48 133.671 193.536 193.694 69.238 92.16 109.332 188.337 120.99 289.871 3.151 27.727 2.757 79.793-0.788 101.061-20.638 122.959-112.561 215.276-232.29 233.236-11.198 1.227-24.184 1.928-37.334 1.928-15.381 0-30.539-0.958-45.417-2.818l1.776 0.181c-46.395-7.010-89.167-25.994-130.914-57.974-20.442-16.544-38.698-33.977-55.442-52.784l-0.406-0.464-8.507-10.082-8.507 10.082c-42.299 49.94-100.037 88.615-156.436 104.921-30.247 8.743-84.756 11.658-116.263 6.302z" />
<glyph unicode="&#xe90d;" glyph-name="mail-2" horiz-adv-x="1280" d="M100.288 956.672c-24.512-5.72-45.57-18.063-61.847-35.029l-0.041-0.043c-16.521-15.426-28.544-35.473-34.012-58.080l-0.164-0.8c-4.16-16.128-4.224-25.088-4.224-414.72s0.064-398.592 4.224-414.72c6.080-23.936 15.68-40.448 34.176-58.88 18.432-18.496 34.944-28.096 58.88-34.176 16.192-4.16 25.664-4.224 542.72-4.224s526.528 0.064 542.72 4.224c23.936 6.080 40.448 15.68 58.88 34.176 18.496 18.432 28.096 34.944 34.176 58.88 4.16 16.128 4.224 25.088 4.224 414.72s-0.064 398.592-4.224 414.72c-5.632 23.407-17.655 43.454-34.108 58.817l-0.068 0.063c-16.543 17.248-37.987 29.677-62.091 35.046l-0.821 0.154c-21.888 4.608-1057.088 4.48-1078.4-0.128zM1148.672 830.208c-1.088-1.024-116.032-73.024-255.36-160l-253.312-158.208-253.312 158.208c-269.473 161.935-352.772 214.79-435.886 267.91l180.526-107.91c-1.152 0.96 227.776 1.792 508.672 1.792s509.824-0.832 508.672-1.792zM400.512 533.632l239.488-149.632 512 320v-640h-1024v640l16.512-10.304 256-160.064z" />
<glyph unicode="&#xe90e;" glyph-name="phone-2" d="M39.765 956.871c-17.265-5.593-30.682-18.711-36.57-35.384l-0.123-0.399c-3.47-9.5-3.982-38.172-1.308-77.995 6.827-103.993 28.274-200.078 65.991-296.107 13.312-33.849 42.837-94.948 61.099-126.464 134.879-230.491 356.032-398.088 618.072-459.503l6.568-1.297c56.604-12.971 123.506-21.39 183.865-23.211 30.948-0.91 36.693-0.683 45.34 1.934 18.375 5.575 32.313 19.115 38.457 37.547 2.503 7.452 2.844 20.423 2.844 116.167 0 118.443 0.171 115.996-10.524 131.812-6.090 8.674-14.445 15.382-24.212 19.326l-0.364 0.13c-7.225 3.3-12.914 3.982-40.789 5.177-63.602 2.617-119.068 11.776-170.724 28.103-18.66 5.86-29.070 7.396-39.822 5.632-18.546-2.958-21.22-5.12-91.022-74.638l-65.991-65.65-16.725 9.045c-148.392 81.349-267.322 200.279-346.418 344.196l-2.254 4.476-9.045 16.839 65.82 65.934c71.908 72.078 73.842 74.581 75.776 95.63 0.74 8.306-0.455 14.393-7.794 39.822-14.639 47.333-23.964 101.964-25.857 158.478l-0.028 1.038c-1.365 29.639-2.276 37.831-5.177 45.568-5.718 13.596-15.716 24.458-28.279 31.126l-0.336 0.163-9.728 4.779-110.933 0.398c-103.253 0.398-111.559 0.171-119.808-2.674zM201.387 842.638c0.114-20.025 10.866-86.414 19.399-119.865l5.86-23.040-67.755-68.096-1.934 5.063c-6.584 18.528-13.875 43.602-20.027 69.121l-1.193 5.859c-8.188 33.87-14.864 74.767-18.638 116.501l-0.25 3.42-1.138 14.052h42.837c39.652 0 42.837-0.228 42.837-3.015zM786.204 156.274c36.295-9.045 97.223-18.887 116.679-18.887h6.77v-85.675l-12.402 1.138c-74.22 6.995-142.399 21.531-207.414 43.019l6.597-1.888c-3.129 1.138 62.521 67.3 66.731 67.3 1.593 0 11.947-2.276 23.040-5.006z" />
<glyph unicode="&#xe90f;" glyph-name="instagram" d="M564.634 959.937c37.36 0.143 74.723-0.232 112.071-1.126l9.933-0.358c11.469-0.41 22.782-0.922 36.454-1.536 54.473-2.56 91.644-11.161 124.256-23.807 33.788-13.004 62.255-30.617 90.718-59.083 26.030-25.579 46.174-56.52 59.032-90.672 12.648-32.613 21.246-69.834 23.806-124.31 0.614-13.619 1.126-24.985 1.536-36.453l0.307-9.932c0.909-37.333 1.303-74.678 1.18-112.022l0.049-38.195v-67.068c0.127-37.364-0.266-74.723-1.176-112.075l-0.307-9.933c-0.41-11.469-0.922-22.782-1.536-36.45-2.56-54.477-11.264-91.648-23.859-124.26-12.816-34.189-32.965-65.155-59.032-90.722-25.6-26.026-56.553-46.17-90.718-59.032-32.612-12.644-69.784-21.246-124.256-23.806-13.672-0.614-24.986-1.126-36.454-1.536l-9.933-0.307c-37.347-0.913-74.711-1.303-112.071-1.18l-105.21-0.049c-37.36-0.127-74.721 0.266-112.071 1.176l-9.932 0.307c-12.154 0.442-24.305 0.954-36.453 1.536-54.474 2.56-91.643 11.264-124.307 23.859-34.165 12.833-65.111 32.981-90.671 59.032-26.057 25.584-46.22 56.545-59.082 90.722-12.646 32.612-21.247 69.784-23.807 124.26-0.57 12.149-1.082 24.297-1.536 36.45l-0.256 9.933c-0.944 37.351-1.371 74.711-1.28 112.075v105.263c-0.143 37.343 0.233 74.688 1.126 112.022l0.358 9.932c0.41 11.468 0.922 22.834 1.536 36.453 2.56 54.526 11.161 91.645 23.807 124.31 12.87 34.169 33.072 65.101 59.184 90.621 25.542 26.073 56.469 46.254 90.619 59.134 32.664 12.646 69.782 21.247 124.307 23.807l36.453 1.536 9.932 0.256c37.332 0.943 74.675 1.37 112.018 1.28l105.263-0.051zM512.004 703.946c-33.919 0.48-67.592-5.786-99.070-18.434-31.474-12.648-60.121-31.426-84.276-55.242s-43.336-52.196-56.428-83.49c-13.092-31.293-19.834-64.877-19.834-98.8s6.742-67.506 19.834-98.8c13.092-31.293 32.272-59.671 56.428-83.489 24.155-23.814 52.802-42.594 84.276-55.243 31.478-12.648 65.151-18.915 99.070-18.436 67.891 0 133.001 26.972 181.010 74.981 48.005 48.005 74.977 113.119 74.977 181.010 0 67.895-26.972 133.007-74.977 181.015-48.009 48.008-113.119 74.927-181.010 74.927zM512.004 601.549c20.402 0.376 40.673-3.317 59.634-10.865s36.225-18.797 50.786-33.091c14.561-14.296 26.132-31.348 34.030-50.165s11.969-39.014 11.973-59.425c0.004-20.406-4.059-40.608-11.952-59.425s-19.456-35.877-34.013-50.176c-14.557-14.299-31.818-25.555-50.774-33.108s-39.231-11.252-59.634-10.883c-40.735 0-79.802 16.179-108.605 44.986-28.804 28.803-44.986 67.871-44.986 108.605 0 40.739 16.182 79.806 44.986 108.61 28.802 28.805 67.87 44.987 108.605 44.987l-0.049-0.051zM780.788 780.743c-16.515-0.661-32.133-7.687-43.586-19.608s-17.85-27.809-17.85-44.339c0-16.53 6.398-32.419 17.85-44.339s27.070-18.946 43.586-19.608c16.974 0 33.251 6.742 45.253 18.745 12.005 12.002 18.747 28.28 18.747 45.253s-6.742 33.251-18.747 45.253c-12.001 12.002-28.279 18.745-45.253 18.745v-0.102z" />
<glyph unicode="&#xe910;" glyph-name="twitter" horiz-adv-x="1268" d="M1267.81 839.529c-46.665-21.082-96.963-34.936-149.085-41.562 53.331 31.924 94.544 82.522 113.937 143.36-50.303-30.118-106.057-51.2-164.84-63.247-47.879 51.802-115.146 81.92-191.508 81.92-142.414 0-258.775-115.652-258.775-258.409 0-20.48 2.428-40.358 6.666-59.031-215.744 10.842-407.854 113.845-535.726 269.854-22.423-37.948-35.15-82.523-35.15-129.506 0-89.751 45.452-169.261 115.751-214.438-43.028 0-83.026 12.047-118.175 30.118v-1.807c0-125.288 89.692-230.097 208.473-253.59-38.136-10.372-78.172-11.815-116.963-4.218 16.46-51.346 48.697-96.28 92.178-128.478s96.020-50.039 150.233-51.024c-91.896-72.309-205.807-111.392-323.013-110.831-20.605 0-41.21 1.204-61.815 3.613 115.145-73.484 252.107-116.253 398.766-116.253 477.549 0 739.961 393.938 739.961 735.473 0 11.445 0 22.287-0.61 33.732 50.907 36.141 94.544 81.92 129.692 134.324z" />
<glyph unicode="&#xe911;" glyph-name="youtube" horiz-adv-x="1506" d="M602.353 228.569l390.776 219.431-390.776 219.429v-438.86zM1472.753 801.28c9.788-34.377 16.565-80.457 21.082-138.971 5.271-58.514 7.529-108.983 7.529-152.869l4.518-61.44c0-160.184-12.047-277.944-33.129-353.28-18.824-65.831-62.494-108.249-130.259-126.536-35.388-9.511-100.141-16.095-199.529-20.48-97.882-5.12-187.482-7.313-270.306-7.313l-119.718-4.391c-315.482 0-512 11.704-589.553 32.184-67.765 18.287-111.435 60.705-130.259 126.536-9.788 34.376-16.565 80.456-21.082 138.969-5.271 58.519-7.529 108.984-7.529 152.871l-4.518 61.44c0 160.183 12.047 277.943 33.129 353.28 18.824 65.829 62.494 108.251 130.259 126.537 35.388 9.509 100.141 16.091 199.529 20.48 97.882 5.12 187.482 7.314 270.306 7.314l119.718 4.389c315.482 0 512-11.703 589.553-32.183 67.765-18.286 111.435-60.708 130.259-126.537z" />
<glyph unicode="&#xe912;" glyph-name="facebook" horiz-adv-x="532" d="M354.987 371.2h126.781l50.713 204.8h-177.493v102.4c0 52.736 0 102.4 101.426 102.4h76.067v172.032c-16.531 2.202-78.959 7.168-144.885 7.168-137.684 0-235.457-84.838-235.457-240.64v-143.36h-152.137v-204.8h152.137v-435.2h202.849v435.2z" />
<glyph unicode="&#xe913;" glyph-name="job" horiz-adv-x="1186" d="M482.196 947.065c-24.622-5.905-45.783-18.278-62.275-35.219l-0.027-0.028c-28.456-28.241-42.846-59.715-46.996-102.508l-2.21-23.229h-133.875c-90.112 0-137.27-0.701-144.33-2.156-35.032-7.33-67.907-37.942-79.225-73.836-4.365-13.905-4.365-14.174-4.365-175.966 0-151.66 0.216-162.762 3.611-173.811 7.707-24.953 21.073-44.14 40.691-58.422l12.019-8.731v-108.867c0-69.093 0.755-113.179 2.102-120.616 7.384-40.583 42.469-76.099 83.86-84.83 20.803-4.365 830.841-4.365 851.699 0 40.266 8.95 71.822 38.91 82.914 77.528l0.192 0.781c2.317 8.623 2.856 31.96 2.856 123.311v112.748l5.659 3.341c18.216 10.725 36.648 33.469 45.379 55.997l5.282 13.635 0.593 160.337c0.593 177.637 0.647 177.368-11.911 202.213-8.084 15.953-28.133 36.379-44.248 44.948-23.606 12.557-21.342 12.396-170.846 12.396h-135.653l-1.132 21.235c-2.425 45.595-17.516 78.686-49.475 108.544-15.827 15.243-35.879 26.205-58.228 30.957l-0.787 0.14c-20.857 4.312-171.331 4.365-191.272 0.108zM668.295 869.511c11.264-5.551 23.336-18.324 30.289-32.013 5.336-10.563 10.671-41.876 8.246-48.236-1.132-2.856-13.528-3.18-129.725-3.18h-128.539v14.336c0 0.032 0 0.070 0 0.108 0 25.458 11.659 48.193 29.929 63.157l0.144 0.115c13.15 10.563 18.809 11.102 103.316 10.671 76.045-0.431 77.231-0.485 86.339-4.958zM744.987 709.389l152.684 0.862c144.492 0.808 147.833 0.755 155.379-3.072 4.258-2.156 9.809-7.33 12.396-11.426l4.635-7.491v-154.139c0-167.289 0.485-159.69-10.509-169.607-10.078-9.108-8.785-9.054-197.47-9.108l-178.338-0.108v-77.069h329.997v-99.867c0-108.49 0.108-107.466-11.102-117.814-3.819-3.229-8.348-5.756-13.308-7.31l-0.274-0.074c-10.024-2.749-810.253-3.018-821.949-0.323-9.469 2.040-17.267 7.949-21.796 15.952l-0.085 0.163c-3.773 6.467-3.988 10.833-4.527 108.005l-0.539 101.268h332.099v76.962l-364.598 1.078-6.952 4.365c-4.624 3.209-8.431 7.256-11.274 11.952l-0.098 0.174-4.365 7.761v308.17l4.473 6.683c3.153 4.332 6.858 8.021 11.066 11.057l0.144 0.099 6.683 4.527 637.629-1.671zM518.629 440.563c-9.805-4.762-17.236-13.124-20.667-23.324l-0.082-0.282c-1.455-4.904-1.94-31.96-1.509-82.405 0.593-72.542 0.755-75.345 4.904-82.998 5.389-10.024 13.635-17.624 22.205-20.48 9.108-3.018 92.214-3.018 104.34 0.054 11.695 2.91 25.061 15.468 28.025 26.355 1.401 5.12 2.156 34.439 2.156 82.998-0.054 87.148-0.054 87.148-17.031 97.118l-9.593 5.659-52.386 0.485c-47.589 0.485-53.086 0.162-60.362-3.18z" />
<glyph unicode="&#xe914;" glyph-name="items" horiz-adv-x="975" d="M473.917 943.567c-63.439-9.265-119.174-52.858-150.43-117.711-19.115-39.595-27.55-78.555-27.648-126.927v-19.7l-34.572-0.878c-39.302-0.926-47.25-2.438-70.266-13.263-42.667-20.090-78.165-61.538-93.379-108.983-3.218-10.142-14.824-73.143-37.498-204.020-30.769-177.445-32.768-190.318-32.085-204.8 1.463-29.94 14.97-57.637 40.96-83.919 23.698-23.893 46.665-37.254 82.993-48.274l11.362-3.413 327.534-0.536c242.834-0.439 330.654-0.049 339.675 1.317 54.76 8.485 107.471 46.86 128.731 93.769 7.997 17.701 11.557 34.865 10.533 50.81-0.975 14.872-60.514 361.862-66.219 385.853-7.055 29.155-20.345 54.533-38.436 75.682l0.206-0.247c-22.43 26.965-50.127 46.080-79.482 54.906-13.41 3.998-17.603 4.437-49.981 5.169l-35.352 0.78v28.087c0 46.519-7.558 79.433-27.502 120.247-36.23 74.021-103.717 118.833-177.25 117.662-6.729-0.098-16.579-0.829-21.894-1.609zM527.409 872.814c49.835-12.873 90.99-65.341 102.449-130.633 1.414-8.192 2.438-23.893 2.438-38.571v-24.82h-266.923l0.731 32.134c0.634 28.038 1.268 34.036 4.925 47.543 14.97 54.857 47.738 95.573 89.527 111.275 19.992 7.558 45.154 8.68 66.853 3.072zM295.838 593.896c0.049-20.187 1.609-27.404 7.607-35.938 11.703-16.579 35.889-18.432 50.859-3.852 8.241 8.046 10.142 14.287 11.069 36.523l0.78 19.895h265.801l0.585-20.724c0.536-19.212 0.878-21.26 5.12-28.477 5.823-10.344 16.733-17.217 29.247-17.217 9.338 0 17.781 3.826 23.85 9.996l0.005 0.005c8.387 8.192 9.801 13.263 9.801 36.084v20.334h27.258c30.037 0 40.57-1.804 54.613-9.362 22.821-12.337 47.933-45.641 54.321-71.875 0.975-4.047 10.971-60.709 22.284-126.001 11.264-65.243 20.87-119.906 21.309-121.466 0.78-2.731-18.139-2.877-381.367-2.877h-382.196l0.926 4.486c0.488 2.438 10.045 57.49 21.211 122.295 11.166 64.853 21.845 122.636 23.698 128.536 8.728 27.648 31.5 56.076 54.126 67.682 13.312 6.827 22.479 8.29 51.834 8.436l27.258 0.146v-16.628zM893.806 202.142c9.021-45.836 9.411-53.687 3.218-67.779-10.435-23.796-43.252-48.177-72.119-53.638-7.119-1.317-97.134-1.707-331.581-1.365l-321.829 0.488-10.581 3.755c-32.768 11.703-61.928 40.814-64.61 64.463-0.634 5.851 5.9 52.175 8.582 60.611 0.536 1.609 80.75 1.999 393.947 1.999h393.265l1.707-8.533z" />
<glyph unicode="&#xe915;" glyph-name="home" horiz-adv-x="1144" d="M563.622 933.376c-30.72-3.855-53.911-14.396-85.474-38.972-40.056-31.202-338.583-285.455-353.461-300.996-17.528-18.372-28.311-37.707-35.418-63.548l-4.216-15.24-1.325-483.569h-15.24c-22.95 0-36.141-7.168-43.912-23.853-9.336-20.179 2.831-46.14 24.516-52.405 5.12-1.506 157.997-1.928 532.962-1.506l525.794 0.542 8.312 6.024c10.072 6.581 16.635 17.802 16.635 30.556 0 1.309-0.069 2.602-0.204 3.876l0.014-0.159c-1.325 22.227-18.010 36.924-41.864 36.924h-10.963l-0.602 242.748-0.602 242.688-4.216 14.999c-7.285 25.434-20.323 47.261-37.663 64.829l0.016-0.016c-12.408 12.469-238.532 205.161-332.258 282.985-37.768 31.443-58.248 43.731-83.305 50.116-12.438 2.973-26.719 4.678-41.398 4.678-5.677 0-11.295-0.255-16.842-0.754l0.716 0.052zM613.256 848.384c16.324-7.891 16.264-7.831 191.669-156.13 187.272-158.298 179.32-151.311 187.151-165.707l6.505-11.927 0.964-483.569h-263.288v92.401c0 54.633-0.783 98.485-1.988 107.279-3.361 21.465-10.087 40.763-19.679 58.267l0.463-0.923c-9.216 15.601-38.008 44.092-54.091 53.489-22.791 13.237-50.152 21.049-79.338 21.049-22.329 0-43.589-4.573-62.897-12.832l1.044 0.397c-38.49-16.143-71.499-52.826-84.691-94.027-6.385-19.998-7.77-43.49-7.77-136.855l-0.060-88.245h-263.288l0.542 240.821 0.482 240.821 5 10.481c3.979 7.563 8.732 14.065 14.294 19.775l-0.018-0.018c9.999 9.879 303.285 258.59 335.992 284.913 8.665 7.237 18.288 14.078 28.425 20.149l1.030 0.572c20.179 10.24 42.165 10.18 63.548-0.181zM596.209 282.714c24.215-4.457 48.068-23.492 56.019-44.755 3.795-10.18 3.915-14.095 3.915-108.725v-98.184h-148.902l0.542 100.653 0.542 100.593 5.421 10.481c10.421 20.119 29.214 34.635 50.839 39.394 13.613 2.952 17.95 3.012 31.624 0.542z" />
<glyph unicode="&#xe916;" glyph-name="services" horiz-adv-x="1664" d="M1483.341 332.847c-18.522 0-31.482 7.034-38.893 21.103-7.405 14.068-7.405 28.138 0 42.206 7.411 14.068 20.371 21.103 38.893 21.103 18.515 0 31.482-7.035 38.886-21.103s7.405-28.138 0-42.206c-7.405-14.069-20.371-21.103-38.886-21.103zM460.422 371.097c4.63 5.715 13.542 16.707 26.736 32.973s22.801 28.138 28.82 35.612c6.019 7.474 14.815 18.245 26.388 32.314s21.412 25.719 29.514 34.952c8.102 9.233 17.476 19.565 28.125 30.995s21.065 22.202 31.25 32.314l86.806-92.326c38.426-41.327 86.688-61.551 144.794-60.671 58.099 0.879 105.67 22.422 142.707 64.628 26.387 30.336 39.469 65.068 39.238 104.196-0.237 39.129-13.779 73.641-40.627 103.537l-122.918 135.852c10.189 4.836 21.99 8.463 35.418 10.881s24.422 3.737 32.986 3.956c8.563 0.22 21.645 0.11 39.238-0.33s28.934-0.659 34.029-0.659c42.592 0 79.162-14.509 109.722-43.525l109.722-104.197h107.635v-358.753c-2.31 0-7.174 0.11-14.579 0.33-7.411 0.22-12.499 0.22-15.277 0-2.784-0.22-7.296-0.659-13.542-1.318-6.253-0.66-10.995-1.649-14.24-2.968-3.238-1.319-7.29-3.188-12.154-5.606-4.858-2.418-9.139-5.384-12.845-8.904l-206.253-192.563c-53.235-48.8-105.786-73.203-157.638-73.203-36.109 0-65.043 15.61-86.803 36.269-26.387-8.787-52.429-12.307-78.125 0-25.696 12.314-38.33 34.298-46.202 59.354-34.259-2.637-67.804 3.738-92.34 25.722-9.259 7.91-17.592 17.914-25 30.003s-10.648 23.194-9.722 33.306c-4.63-4.397-14.584-6.592-29.861-6.592-19.908 0-37.732 4.614-53.473 13.843-15.74 9.235-27.199 20.883-34.375 34.957-7.176 14.067-9.953 29.786-8.333 47.151s8.68 33.523 21.18 48.471zM350.005 332.847h-66.667v337.65h64.584l109.028 118.705c30.556 33.413 69.676 50.12 117.361 50.12h115.974c41.203 0 74.995-14.728 101.389-44.185l145.139-160.252c12.96-14.509 19.443-30.995 19.443-49.46s-6.253-34.952-18.752-49.46c-19.904-22.422-45.37-33.853-76.39-34.292-31.014-0.44-56.71 10.332-77.082 32.314l-134.029 143.764c-11.572 10.112-23.956 14.838-37.151 14.179s-24.074-6.595-32.639-17.806c-8.565-11.211-10.532-23.631-5.903-37.26-7.407-8.353-20.371-22.202-38.889-41.547s-32.408-34.292-41.667-44.844c-13.427-15.827-32.524-39.018-57.292-69.574s-39.699-49.131-44.792-55.725c-24.074-29.017-37.963-59.793-41.667-92.326zM150.005 332.847c-18.518 0-31.482 7.034-38.889 21.103s-7.407 28.138 0 42.206c7.407 14.068 20.371 21.103 38.889 21.103s31.482-7.035 38.889-21.103c7.407-14.068 7.407-28.138 0-42.206s-20.371-21.103-38.889-21.103zM16.672 712.703v-422.060c0-11.43 4.398-21.325 13.194-29.677s19.213-12.531 31.25-12.531h301.389c12.5-28.576 31.482-51.987 56.945-70.234s54.398-29.568 86.806-33.965c15.277-21.101 33.912-39.014 55.903-53.747 21.99-14.726 45.718-24.73 71.18-30.003 19.443-23.302 43.635-41.216 72.569-53.747s58.682-17.914 89.235-16.16c27.782-14.944 56.947-23.629 87.501-26.048s60.070 0.659 88.544 9.235c28.474 8.57 55.552 20.333 81.248 35.283 25.696 14.944 49.651 32.749 71.878 53.414l199.302 185.971h248.614c12.032 0 22.451 4.179 31.245 12.531 8.8 8.352 13.197 18.246 13.197 29.677v443.164c0 11.43-4.397 21.323-13.197 29.676-8.794 8.353-19.213 12.53-31.245 12.53h-292.365c-6.483 6.155-17.363 16.707-32.64 31.654s-26.272 25.5-32.986 31.655c-6.714 6.155-16.896 14.948-30.554 26.379s-25.35 19.674-35.072 24.73c-9.722 5.055-21.523 10.661-35.418 16.816-13.888 6.155-28.237 10.442-43.053 12.86s-30.554 3.627-47.219 3.627h-81.254c-45.83 0-87.731-12.31-125.696-36.931-37.958 24.62-79.859 36.931-125.69 36.931h-115.974c-16.204 0-31.713-1.319-46.528-3.957s-27.894-5.825-39.236-9.562c-11.342-3.737-23.263-9.562-35.763-17.476s-22.801-14.728-30.903-20.444c-8.102-5.716-18.056-14.399-29.861-26.049s-20.833-20.883-27.084-27.698c-6.25-6.815-15.741-17.366-28.472-31.654s-22.338-24.95-28.819-31.985h-246.528c-12.037 0-22.454-4.177-31.25-12.53s-13.194-18.245-13.194-29.676z" />
<glyph unicode="&#xe917;" glyph-name="car" horiz-adv-x="1205" d="M344.365 929.882c-40.117-10.36-77.402-37.587-97.822-71.379-5.361-8.915-56.742-133.361-78.185-189.5-1.807-4.698-3.855-3.012-43.49 36.442-22.829 22.709-44.454 42.767-47.947 44.514-4.935 2.058-10.668 3.253-16.68 3.253-0.002 0-0.004 0-0.006 0v0c-25.66 0-43.068-21.926-37.707-47.646 1.867-8.915 4.879-12.469 42.165-49.995l40.117-40.418-11.264-7.469c-33.029-21.882-57.266-54.757-67.626-93.316l-0.259-1.133c-4.518-15.962-4.518-16.745-4.518-159.624 0-142.155 0.060-143.721 4.518-159.624 15.37-56.68 59.168-100.398 114.755-115.39l1.138-0.261c13.673-3.614 23.853-4.397 67.765-5.301l51.682-1.024v-38.792c0-21.323 1.024-43.49 2.289-49.272 3.714-17.58 19.1-30.584 37.523-30.584 10.801 0 20.558 4.47 27.522 11.66l0.010 0.010c11.384 11.445 13.011 19.878 13.011 68.427v39.093h521.999v-39.093c0-21.444 1.024-43.731 2.289-49.513 3.714-17.58 19.1-30.584 37.523-30.584 10.801 0 20.558 4.47 27.522 11.66l0.010 0.010c11.384 11.384 13.011 19.878 13.011 68.186v38.792l51.682 1.024c43.912 0.904 54.091 1.687 67.765 5.301 56.681 14.938 99.87 58.007 115.953 115.652 4.397 15.962 4.457 17.408 4.457 159.624 0 142.697-0.060 143.661-4.518 159.624-10.594 39.684-34.839 72.548-67.284 94.015l-0.601 0.374-11.204 7.469 40.056 40.418c37.165 37.466 40.237 41.141 42.104 50.056 5.421 25.66-11.927 47.646-37.647 47.646-0.002 0-0.003 0-0.005 0-6.012 0-11.745-1.195-16.974-3.361l0.294 0.108c-3.494-1.747-25.118-21.805-48.008-44.574l-41.562-41.382-2.891 6.927-35.358 87.281c-17.974 46.215-31.233 76.991-45.149 107.403l5.755-14.038c-19.697 37.647-59.211 68.126-101.496 78.246-16.324 3.915-23.371 4.036-258.711 3.915-226.906-0.181-242.869-0.422-256-3.855zM853.775 849.227c13.372-6.264 29.997-21.143 36.683-32.708 3.373-5.843 58.669-139.987 74.752-181.308 0.783-1.988-72.523-2.47-362.616-2.47-200.041 0-363.64 0.422-363.64 0.964 0 1.988 68.608 172.574 72.403 179.983 8.433 16.565 25.6 31.142 44.695 38.008 9.939 3.614 20.299 3.795 248.29 3.313l237.929-0.422 11.505-5.361zM1058.153 547.208c16.685-7.891 31.021-22.227 38.972-38.972l6.204-13.071v-283.106l-6.264-13.011c-9.923-20.759-27.56-36.492-49.105-43.681l-0.589-0.17c-9.457-3.072-45.538-3.373-445.018-3.373s-435.561 0.301-445.018 3.373c-22.134 7.36-39.771 23.093-49.477 43.349l-0.217 0.502-6.264 13.011v283.106l6.204 13.071c9.698 20.42 25.901 34.756 48.911 43.249 5.843 2.168 88.245 2.59 447.849 2.289l440.742-0.361 13.071-6.204zM342.016 410.293c-23.82-8.159-40.638-30.357-40.638-56.484 0-16.599 6.789-31.613 17.742-42.416l0.007-0.007c45.056-45.056 120.772 3.373 98.485 62.886-8.841 23.053-30.793 39.122-56.497 39.122-6.832 0-13.399-1.135-19.523-3.227l0.425 0.126zM823.898 410.293c-23.82-8.159-40.638-30.357-40.638-56.484 0-16.599 6.789-31.613 17.742-42.416l0.007-0.007c45.056-45.056 120.772 3.373 98.485 62.886-8.841 23.053-30.793 39.122-56.497 39.122-6.832 0-13.399-1.135-19.523-3.227l0.425 0.126z" />
<glyph unicode="&#xe918;" glyph-name="phone" d="M236.398 900.315c-13.166-1.536-21.065-4.096-35.767-11.776-9.582-4.901-19.31-13.239-49.518-42.203-64-61.44-77.166-79.214-87.479-118.126-3.73-14.336-4.315-20.261-4.462-44.69-0.293-60.197 16.969-121.125 57.71-203.922 69.851-142.117 194.633-282.039 329.874-370.030 93.989-61.147 182.272-99.182 258.926-111.543 28.818-4.608 63.488-3.95 85.358 1.829 21.211 5.486 40.667 14.775 56.466 26.77 17.189 13.093 95.744 94.135 102.766 105.984 3.145 5.266 7.68 15.214 10.167 22.162 6.071 16.969 6.437 41.033 0.878 58.587-7.387 23.406-12.8 30.208-71.314 89.381-64.585 65.39-81.774 81.115-97.719 89.454-30.866 16.238-68.535 14.702-97.792-4.096-6.51-4.169-24.942-20.919-45.275-41.106l-34.377-34.085-12.507 6.29c-33.792 17.042-79.726 53.029-122.88 96.183-45.568 45.641-71.461 77.751-93.769 116.517l-10.167 17.481 36.279 36.791c46.665 47.47 53.833 59.319 55.442 92.087 1.024 19.895-1.243 30.939-10.24 49.664-6.875 14.263-7.973 15.506-76.288 83.675-74.167 74.094-79.506 78.482-102.546 85.211-13.239 3.803-27.794 5.047-41.765 3.511zM264.704 821.467c4.096-2.999 33.792-31.817 65.902-64.146 65.755-66.267 66.487-67.218 61.147-81.92-2.56-6.802-10.021-15.067-46.007-50.761-37.595-37.23-43.447-43.739-45.934-51.054-6.144-18.139-2.706-33.426 14.921-66.779 50.030-94.574 160.475-204.215 258.341-256.512 33.938-18.139 44.69-20.48 63.049-13.678 8.85 3.291 13.97 7.753 51.639 44.983 23.040 22.747 44.325 42.569 47.323 44.105 8.704 4.535 19.31 3.657 27.136-2.121 11.41-8.485 124.928-123.685 126.83-128.731 2.853-7.534 2.194-15.36-1.975-23.040-2.121-3.803-22.016-25.381-44.251-47.835-44.398-44.91-49.883-48.933-73.947-53.979-14.848-3.145-22.528-3.145-45.349-0.146-105.253 14.043-252.050 95.89-361.545 201.655-130.194 125.733-228.864 301.861-228.864 408.503 0 40.521 3.218 46.226 55.296 98.816 22.601 22.821 43.813 42.935 47.104 44.69 9.582 5.12 20.261 4.389 29.184-2.048z" />
<glyph unicode="&#xe919;" glyph-name="bell" horiz-adv-x="819" d="M460.75 908.876c-0.042 28.277-22.999 51.166-51.276 51.124s-51.166-22.999-51.124-51.276l0.173-116.289 102.4 0.152-0.173 116.289zM110.566 522.67c22.907 237.345 190.568 269.828 299.464 269.828h27.224c81.673 0.616 271.855-53.966 272.239-269.828 0.41-229.125 68.828-322.058 97.797-361.4v0c5.146-6.994 9.047-12.288 11.1-16.358 9.073-17.992-54.446-53.965-381.136-53.965-326.688 0-453.623 35.994-435.584 53.965 27.224 26.982 80.25 80.947 108.896 377.758zM259.69 90.962c-0.556-4.884-0.84-9.851-0.84-14.874 0-77.42 67.563-140.186 150.905-140.186s150.905 62.766 150.905 140.186c0 4.291-0.21 8.54-0.614 12.733-19.451-0.568-40.044-0.993-61.829-1.265 0.663-3.799 1.003-7.639 1.003-11.469 0-39.301-35.711-78.746-89.465-78.746s-89.465 39.444-89.465 78.746c0 4.234 0.416 8.474 1.224 12.667-21.62 0.589-42.221 1.331-61.823 2.207z" />
<glyph unicode="&#xe91a;" glyph-name="search" horiz-adv-x="960" d="M946.522 48.934l-177.978 176.666c69.088 86.202 102.541 195.619 93.491 305.749-9.056 110.13-59.923 212.604-142.157 286.351-82.228 73.747-189.568 113.161-299.944 110.138s-215.402-48.252-293.479-126.389c-78.078-78.136-123.273-183.241-126.293-293.702s36.364-217.878 110.055-300.176c73.691-82.291 176.087-133.203 286.134-142.259 110.047-9.062 219.379 24.422 305.519 93.555l176.531-176.666c4.461-4.499 9.766-8.070 15.61-10.509 5.85-2.438 12.115-3.693 18.451-3.693 6.33 0 12.602 1.254 18.451 3.693 5.843 2.438 11.149 6.010 15.61 10.509 8.646 8.954 13.478 20.915 13.478 33.363 0 12.454-4.832 24.416-13.478 33.37zM432.746 158.867c-66.415 0-131.339 19.712-186.561 56.64-55.222 36.922-98.262 89.408-123.678 150.815s-32.066 128.975-19.109 194.164 44.939 125.068 91.901 172.066c46.963 46.998 106.796 79.004 171.935 91.971s132.657 6.312 194.017-19.123c61.359-25.436 113.802-68.509 150.704-123.773 36.896-55.264 56.589-120.237 56.589-186.702 0-89.128-35.379-174.605-98.349-237.626-62.977-63.021-148.389-98.432-237.449-98.432z" />
<glyph unicode="&#xe91b;" glyph-name="eye-closed" horiz-adv-x="1122" d="M111.226 934.059c-21.286-5.385-36.79-24.357-36.815-46.955v-0.003c0-20.626 1.122-22.089 80.36-101.474 60.075-60.221 71.826-72.85 69.242-74.313-4.925-2.828-45.787-32.817-62.318-45.739-41.253-32.232-108.105-94.842-128.341-120.198-12.478-16.037-22.374-34.815-28.638-55.183l-0.327-1.235c-2.536-9.216-3.316-19.163-3.316-41.106 0-33.256 2.194-44.032 13.995-68.559 9.996-20.821 23.601-37.303 60.367-72.997 52.175-50.615 94.549-85.333 147.944-120.978 99.084-66.267 193.39-102.888 292.035-113.323 26.673-2.828 88.064-1.268 114.493 2.877 49.64 7.802 104.35 24.088 150.479 44.763l26.185 11.703 83.188-82.603c77.483-77.044 83.822-82.895 93.184-85.918 4.695-1.669 10.11-2.633 15.75-2.633 26.725 0 48.393 21.651 48.421 48.369v0.003c0 6.827-1.414 13.995-3.852 19.505-3.121 7.070-87.235 92.355-446.22 452.413-323.048 324.023-444.806 445.001-451.486 448.658-9.801 5.315-24.674 7.461-34.328 4.925zM513.073 823.223c-20.773-2.341-27.599-4.437-36.718-11.459-22.040-16.774-24.771-51.346-5.705-71.095 14.58-15.067 22.284-16.872 58.758-14.043 118.54 9.265 242.688-37.108 370.298-138.142 48.567-38.473 110.787-98.304 119.174-114.493 3.608-7.022 4.34-11.313 4.34-26.136 0.098-25.941-1.853-28.867-53.102-79.141-46.031-45.154-46.763-46.178-46.665-66.901 0.098-26.234 21.602-46.86 48.762-46.763 6.632 0.049 14.092 1.463 18.92 3.608 15.019 6.729 88.454 78.117 104.204 101.327 19.261 28.331 25.112 48.859 25.112 87.869 0 31.549-2.097 42.862-11.947 64.61-11.264 24.917-34.328 51.688-83.285 96.89-123.124 113.566-248.832 183.345-373.809 207.531-39.79 7.753-101.23 10.533-138.338 6.339zM358.644 581.705l60.514-60.514-4.876-12.19c-23.698-59.197-11.8-123.806 31.159-169.009 22.772-23.942 45.007-37.498 75.142-45.69 11.995-3.267 20.090-4.047 41.106-4.096 23.113 0 28.136 0.585 42.715 5.022 9.070 2.779 19.066 6.339 22.235 7.997l5.705 2.926 50.127-50.127c27.599-27.599 49.542-50.712 48.811-51.444-2.974-2.779-50.664-18.92-71.192-24.040-39.107-9.801-55.93-11.898-97.475-11.995-28.282-0.098-43.837 0.731-59.441 3.218-101.327 16.043-207.238 70.412-311.589 159.939-32.134 27.599-82.115 77.873-87.966 88.6-4.876 8.875-5.364 11.459-5.315 27.55 0 14.872 0.731 19.115 4.34 26.136 7.070 13.653 63.049 68.657 106.691 104.838 23.113 19.163 84.066 63.098 87.869 63.342 0.536 0.049 28.184-27.16 61.44-60.465zM548.913 388.413c-4.925-1.073-22.772 8.533-30.622 16.433-7.782 7.772-13.544 17.565-16.432 28.525l-0.098 0.44c-1.073 4.73 2.779 1.609 24.235-19.602 14.629-14.434 24.381-25.502 22.918-25.795z" />
<glyph unicode="&#xe91c;" glyph-name="eye" horiz-adv-x="1536" d="M732.16 958.528c-68.864-5.888-111.552-13.504-165.568-29.568-132.544-39.552-269.568-119.040-402.752-233.792-36.032-31.040-105.152-98.816-120.512-118.144-29.12-36.608-43.264-78.784-43.264-129.024 0-38.080 5.824-63.424 22.016-95.744 12.48-24.96 27.648-43.008 75.584-89.856 104.768-102.464 206.336-177.216 318.336-234.176 241.408-122.752 462.592-122.752 704 0 112 56.96 213.568 131.712 318.336 234.176 47.936 46.848 63.104 64.896 75.584 89.856 18.048 35.968 23.488 63.936 21.248 108.544-1.6 30.848-4.736 45.696-14.592 69.12-12.672 29.952-27.584 49.024-76.288 97.344-107.776 107.008-220.16 189.376-336.256 246.464-89.536 44.096-177.664 71.296-261.952 80.96-25.728 2.944-96.192 5.312-113.92 3.84zM812.8 829.312c175.296-14.848 367.936-119.68 547.2-297.856 41.984-41.728 46.72-50.176 46.656-83.456 0-33.92-4.032-41.216-45.696-82.56-195.968-194.752-405.888-301.44-592.96-301.44-93.248 0-195.712 27.392-295.744 79.104-104 53.824-199.488 125.248-297.216 222.336-41.664 41.344-45.696 48.64-45.696 82.56 0 33.984 4.032 41.152 45.888 82.688 195.392 193.728 398.464 297.728 587.648 300.928 17.707-0.084 35.085-0.919 52.255-2.475l-2.335 0.171zM734.72 658.88c-39.804-7.837-74.828-24.413-104.322-47.687l0.514 0.391c-31.744-25.792-56.448-63.552-69.248-105.984-6.080-20.16-6.976-27.328-6.976-57.6s0.896-37.44 6.976-57.6c21.824-72.32 74.112-124.608 147.456-147.584 16.704-5.248 24.384-6.016 58.88-6.016s42.176 0.768 58.88 6.016c29.124 8.939 54.392 22.618 76.26 40.33l-0.42-0.33c34.816 28.16 58.24 63.36 71.616 107.584 6.080 20.16 6.976 27.328 6.976 57.6s-0.896 37.44-6.976 57.6c-16.623 57.177-55.116 103.37-105.587 129.812l-1.165 0.556c-31.872 16.896-53.44 22.272-93.184 23.296-4.785 0.208-10.397 0.327-16.038 0.327-8.317 0-16.575-0.258-24.764-0.767l1.122 0.056zM805.12 524.672c28.909-13.886 48.512-42.935 48.512-76.563 0-24.491-10.398-46.554-27.020-62.014l-0.052-0.048c-15.327-14.218-35.924-22.942-58.56-22.942s-43.233 8.724-58.615 22.993l0.055-0.050c-40.896 38.4-34.752 104.32 12.416 133.376 17.6 10.816 26.496 12.992 49.984 12.16 15.552-0.512 23.616-2.176 33.28-6.912z" />
<glyph unicode="&#xe91d;" glyph-name="left-angel" horiz-adv-x="745" d="M589.545 935.052c-6.164-1.684-11.514-3.812-16.554-6.451l0.449 0.214-10.519-5.12-237.382-237.196c-79.303-78.819-156.666-156.535-233.612-234.663l-3.769-3.836c0-2.42 473.274-474.205 479.791-478.301 12.009-7.447 19.27-9.309 36.492-9.402 1.571-0.148 3.397-0.233 5.244-0.233 6.579 0 12.907 1.073 18.819 3.054l-0.418-0.121c19.225 7.381 34.257 22.019 41.99 40.474l0.18 0.486c2.875 7.447 4.54 16.065 4.54 25.071 0 14.105-4.085 27.256-11.136 38.335l0.172-0.29c-2.141 3.351-88.157 90.391-191.116 193.536l-187.206 187.392 187.206 187.392c102.959 103.145 188.975 190.185 191.116 193.536 6.879 10.789 10.963 23.94 10.963 38.045 0 9.006-1.665 17.623-4.705 25.561l0.165-0.49c-9.131 21.508-27.63 37.496-50.233 42.998l-0.501 0.103c-4.411 0.682-9.498 1.071-14.677 1.071-5.399 0-10.7-0.423-15.87-1.239l0.572 0.074z" />
</font>
</defs>
</svg>
